<svg width="22" height="32" viewBox="0 0 22 32" fill="none" xmlns="http://www.w3.org/2000/svg">
<path d="M7.28389 28.7048C7.28395 28.7048 7.28402 28.7049 7.28408 28.7049L9.18845 30.3756V24.0171H5.08948V30.3754L6.99076 28.7049L7.28389 28.7048ZM7.28389 28.7048C7.19971 28.6306 7.07511 28.6306 6.99095 28.7048L7.28389 28.7048ZM3.9217 27.076H4.63569V30.8707C4.63569 30.9591 4.68494 31.0375 4.76148 31.0765C4.84565 31.1194 4.94121 31.0986 5.00469 31.0447L5.00588 31.0437L7.13432 29.1778L9.26277 31.0437L9.26291 31.0438C9.30078 31.0769 9.35457 31.1 9.40916 31.1C9.44239 31.1 9.47357 31.0936 9.50717 31.0765C9.58371 31.0375 9.63296 30.9591 9.63296 30.8707V27.076H20.8762C21.0013 27.076 21.1 26.9727 21.1 26.8499C21.1 26.7271 21.0013 26.6237 20.8762 26.6237C19.46 26.6237 18.3052 25.4499 18.3052 24.0022V23.9454C18.3052 22.4944 19.4602 21.3176 20.8762 21.3176C21.0013 21.3176 21.1 21.2143 21.1 21.0915V1.12614C21.1 1.00331 21.0013 0.9 20.8762 0.9H2.35562C1.55288 0.9 0.9 1.5645 0.9 2.38127V23.7909C0.9 23.8074 0.902412 23.8218 0.905105 23.833C0.902503 23.8674 0.9 23.9036 0.9 23.9423V23.9991C0.9 25.6923 2.25214 27.076 3.9217 27.076ZM19.2981 26.6206H9.63296V24.0139H10.5884C10.7134 24.0139 10.8122 23.9106 10.8122 23.7878C10.8122 23.6649 10.7134 23.5616 10.5884 23.5616H3.67719C3.55211 23.5616 3.45339 23.6649 3.45339 23.7878C3.45339 23.9106 3.55211 24.0139 3.67719 24.0139H4.63259V26.6206H3.9186C2.50236 26.6206 1.3476 25.4467 1.3476 23.9991V23.9423C1.3476 22.4946 2.50236 21.3208 3.9186 21.3208H19.2966C18.4312 21.8632 17.8545 22.8369 17.8545 23.9423V23.9991V23.9993C17.8573 25.1065 18.4335 26.08 19.2981 26.6206ZM1.3507 2.37811C1.3507 1.81031 1.80289 1.35229 2.35562 1.35229H20.6524V20.8653H3.9217C2.83513 20.8653 1.8816 21.4528 1.3507 22.3317V2.37811Z" fill="#404040" stroke="#404040" stroke-width="0.2"/>
</svg>
