<svg width="30" height="26" viewBox="0 0 30 26" fill="none" xmlns="http://www.w3.org/2000/svg">
<path d="M7.32558 0C6.51585 0 5.79925 0.483288 5.30887 1.20747C4.87453 1.84887 4.60231 2.68751 4.54578 3.61111H2.02762C0.912766 3.61111 0 4.55599 0 5.71007V23.901C0 25.0551 0.912767 26 2.02762 26H27.9724C29.0872 26 30 25.0551 30 23.901V5.71007C30 4.55599 29.0872 3.61111 27.9724 3.61111H25.4542C25.3934 2.64026 25.1004 1.77031 24.6257 1.11719C24.14 0.448766 23.4576 0 22.6853 0C21.8756 0 21.159 0.483288 20.6686 1.20747C20.2343 1.84887 19.9531 2.68751 19.8946 3.61111H10.1054C10.0441 2.64026 9.74062 1.77031 9.26599 1.11719C8.78024 0.448766 8.09788 0 7.32558 0ZM7.32558 0.722222C7.84137 0.722222 8.3223 1.01247 8.71003 1.54601C9.08213 2.05805 9.34758 2.78627 9.4077 3.61111H5.24346C5.30147 2.83006 5.54457 2.13013 5.88663 1.625C6.28127 1.04221 6.78479 0.722222 7.32558 0.722222ZM22.6853 0.722222C23.2011 0.722222 23.682 1.01247 24.0698 1.54601C24.4419 2.05805 24.6972 2.78627 24.7565 3.61111H20.5923C20.6503 2.83006 20.8934 2.13013 21.2355 1.625C21.6301 1.04221 22.1445 0.722222 22.6853 0.722222ZM2.02762 4.33333H4.54578C4.60231 5.25693 4.87453 6.09557 5.30887 6.73698C5.79925 7.46116 6.51585 7.94444 7.32558 7.94444C7.37181 7.94512 7.4177 7.93628 7.4606 7.91844C7.50349 7.90059 7.54253 7.8741 7.57545 7.8405C7.60837 7.8069 7.63451 7.76687 7.65236 7.72272C7.6702 7.67857 7.67939 7.63119 7.67939 7.58333C7.67939 7.53548 7.6702 7.4881 7.65236 7.44395C7.63451 7.3998 7.60837 7.35976 7.57545 7.32616C7.54253 7.29257 7.50349 7.26607 7.4606 7.24823C7.4177 7.23039 7.37181 7.22155 7.32558 7.22222C6.78479 7.22222 6.28127 6.90223 5.88663 6.31944C5.54457 5.81431 5.30147 5.11438 5.24346 4.33333H19.8946C19.9531 5.25693 20.2343 6.09557 20.6686 6.73698C21.159 7.46116 21.8756 7.94444 22.6853 7.94444C22.7315 7.94512 22.7774 7.93628 22.8203 7.91844C22.8632 7.90059 22.9023 7.8741 22.9352 7.8405C22.9681 7.8069 22.9943 7.76687 23.0121 7.72272C23.0299 7.67857 23.0391 7.63119 23.0391 7.58333C23.0391 7.53548 23.0299 7.4881 23.0121 7.44395C22.9943 7.3998 22.9681 7.35976 22.9352 7.32616C22.9023 7.29257 22.8632 7.26607 22.8203 7.24823C22.7774 7.23039 22.7315 7.22155 22.6853 7.22222C22.1445 7.22222 21.6301 6.90223 21.2355 6.31944C20.8934 5.81431 20.6503 5.11438 20.5923 4.33333H27.9724C28.7128 4.33333 29.3023 4.94361 29.3023 5.71007V10.1111H0.697674V5.71007C0.697674 4.94361 1.28721 4.33333 2.02762 4.33333ZM0.697674 10.8333H29.3023V23.901C29.3023 24.6675 28.7128 25.2778 27.9724 25.2778H2.02762C1.28721 25.2778 0.697674 24.6675 0.697674 23.901V10.8333Z" fill="#404040"/>
</svg>
