<svg width="28" height="28" viewBox="0 0 28 28" fill="none" xmlns="http://www.w3.org/2000/svg">
<path d="M14.5698 7.7933L14.5351 14.0026V14.0026L14.6837 7.7937M14.5698 7.7933C14.5696 7.82482 14.5951 7.85021 14.6261 7.85043L14.6266 7.79351L14.5698 7.7933ZM14.5698 7.7933L14.5698 7.79307L14.5698 7.79292L14.6266 7.79323L14.6266 7.79311L14.6267 7.76885L14.6267 7.76866L14.6276 7.6509L14.6276 7.79312V7.79324L14.6837 7.79355L14.7698 7.79403L14.6837 7.7937M14.6837 7.7937L14.6276 7.79351L14.6276 7.85044M14.6837 7.7937C14.6834 7.82543 14.6581 7.84998 14.6276 7.85044M14.6276 7.85044H14.6276H14.6276H14.6276H14.6276H14.6276H14.6275H14.6275H14.6275H14.6275H14.6275H14.6275H14.6275H14.6275H14.6275H14.6275H14.6275H14.6275H14.6275H14.6274H14.6274H14.6274H14.6274H14.6274H14.6274H14.6274H14.6274H14.6274H14.6274H14.6274H14.6274H14.6274H14.6273H14.6273H14.6273H14.6273H14.6273H14.6273H14.6273H14.6273H14.6273H14.6273H14.6273H14.6273H14.6273H14.6272H14.6272H14.6272H14.6272H14.6272H14.6272H14.6272H14.6272H14.6272H14.6272H14.6272H14.6272H14.6272H14.6271H14.6271H14.6271H14.6271H14.6271H14.6271H14.6271H14.6271H14.6271H14.6271H14.6271H14.6271H14.6271H14.6271H14.627H14.627H14.627H14.627H14.627H14.627H14.627H14.627H14.627H14.627H14.627H14.627H14.627H14.6269H14.6269H14.6269H14.6269H14.6269H14.6269H14.6269H14.6269H14.6269H14.6269H14.6269H14.6269H14.6269H14.6268H14.6268H14.6268H14.6268H14.6268H14.6268H14.6268H14.6268H14.6268H14.6268H14.6268H14.6268H14.6267H14.6267C14.627 7.85044 14.6273 7.85044 14.6276 7.85044ZM14.072 1.08465H14.0709L14.036 1.08451L13.9989 1.08436C6.91038 1.08436 1.124 6.83021 1.08439 13.9276C1.04447 21.0495 6.8056 26.8755 13.9273 26.9154H13.9284L13.9633 26.9156L14.0004 26.9157C21.0889 26.9157 26.8753 21.1696 26.9152 14.0722C26.9551 6.95055 21.1939 1.12457 14.072 1.08465ZM8.71717 19.9767C8.71723 19.9766 8.7173 19.9765 8.71736 19.9765L8.71723 19.9766L8.71717 19.9767Z" stroke="#404040" stroke-width="0.4"/>
<path d="M14.0733 0.798885H14.0722L14.0365 0.798744L13.9985 0.798596C6.75394 0.798596 0.839523 6.67193 0.798746 13.9253L0.998742 13.9264L0.798746 13.9253C0.757968 21.2045 6.64628 27.1594 13.9252 27.2002H13.9263L13.9619 27.2003L14 27.2004C21.2442 27.2004 27.1589 21.3268 27.1997 14.0732C27.2408 6.79457 21.3525 0.839665 14.0733 0.798885ZM14 26.5147L13.9651 26.5146L13.9291 26.5144C7.02863 26.4758 1.4458 20.8301 1.48447 13.9293L1.28447 13.9282L1.48447 13.9293C1.52286 7.05239 7.13014 1.48433 13.9985 1.48433L14.0334 1.48447L14.0693 1.48461C20.9698 1.52329 26.553 7.16925 26.5143 14.0695C26.4756 20.9464 20.8683 26.5147 14 26.5147Z" stroke="#404040" stroke-width="0.4"/>
<path d="M14.6295 7.45039V7.4504C14.8177 7.45178 14.971 7.60528 14.9698 7.79539L14.6295 7.45039ZM14.6295 7.45039H14.628M14.6295 7.45039H14.628M14.628 7.45039H14.628H14.628H14.628H14.628H14.628H14.628H14.6279H14.6279H14.6279H14.6279H14.6279H14.6279H14.6279H14.6279H14.6279H14.6279H14.6279H14.6279H14.6279H14.6279H14.6279H14.6279H14.6279H14.6279H14.6279H14.6279H14.6278H14.6278H14.6278H14.6278H14.6278H14.6278H14.6278H14.6278H14.6278H14.6278H14.6278H14.6278H14.6278H14.6278H14.6278H14.6278H14.6278H14.6278H14.6278H14.6278H14.6278H14.6277H14.6277H14.6277H14.6277H14.6277H14.6277H14.6277H14.6277H14.6277H14.6277H14.6277H14.6277H14.6277H14.6277H14.6277H14.6277H14.6277H14.6277H14.6277H14.6277H14.6277H14.6276H14.6276H14.6276H14.6276H14.6276H14.6276H14.6276H14.6276H14.6276H14.6276H14.6276H14.6276H14.6276H14.6276H14.6276H14.6276H14.6276H14.6276H14.6276H14.6276H14.6276H14.6275H14.6275H14.6275H14.6275H14.6275H14.6275H14.6275H14.6275H14.6275H14.6275H14.6275H14.6275H14.6275H14.6275H14.6275H14.6275H14.6275H14.6275H14.6275H14.6275H14.6275H14.6274H14.6274H14.6274H14.6274H14.6274H14.6274H14.6274H14.6274H14.6274H14.6274H14.6274H14.6274H14.6274H14.6274H14.6274H14.6274H14.6274H14.6274H14.6274H14.6274H14.6274H14.6273H14.6273H14.6273H14.6273H14.6273H14.6273H14.6273H14.6273H14.6273H14.6273H14.6273H14.6273H14.6273H14.6273H14.6273H14.6273H14.6273H14.6273H14.6273H14.6273H14.6273H14.6272H14.6272H14.6272H14.6272H14.6272H14.6272H14.6272H14.6272H14.6272H14.6272H14.6272H14.6272H14.6272H14.6272H14.6272H14.6272H14.6272H14.6272H14.6272H14.6272H14.6272H14.6271H14.6271H14.6271H14.6271H14.6271H14.6271H14.6271C14.4386 7.45039 14.2855 7.60237 14.2841 7.79107L14.2841 7.79142M14.628 7.45039L14.2841 7.79142M14.2841 7.79142L14.2494 14.0006M14.2841 7.79142L14.2494 14.0006M14.2494 14.0006C14.2494 14.0006 14.2494 14.0006 14.2494 14.0007M14.2494 14.0006L14.2494 14.0007M14.2494 14.0007C14.2489 14.0686 14.2228 14.1303 14.1753 14.1773L14.2494 14.0007ZM14.9352 14.0052L14.9698 7.79573L14.1753 14.1774L8.51652 19.7734L8.51646 19.7735C8.3821 19.9065 8.38047 20.1235 8.51384 20.2583L8.51385 20.2583C8.58082 20.326 8.66931 20.3601 8.75769 20.3601C8.84439 20.3601 8.93175 20.3274 8.99887 20.261C8.99889 20.2609 8.9989 20.2609 8.99892 20.2609L14.6571 14.6654C14.6572 14.6653 14.6573 14.6653 14.6573 14.6652C14.8349 14.4901 14.9333 14.2547 14.9352 14.0055L14.9352 14.0052Z" stroke="#404040" stroke-width="0.4"/>
</svg>
