<svg width="64" height="50" viewBox="0 0 64 50" fill="none" xmlns="http://www.w3.org/2000/svg">
<path d="M19.093 0.00328232C18.9835 0.0264954 18.8806 0.0741543 18.792 0.142711C18.7035 0.211267 18.6315 0.298955 18.5814 0.399244L14.4419 8.50482H3.72093C1.67236 8.50482 0 10.1799 0 12.2315V45.469C0 47.5207 1.67239 49.1957 3.72093 49.1957H60.2791C62.3276 49.1957 64 47.5207 64 45.469V12.2315C64 10.1799 62.3276 8.50482 60.2791 8.50482H48.8605L45.4419 0.445828C45.3838 0.314972 45.2893 0.203647 45.1697 0.125165C45.0501 0.0466838 44.9104 0.00436912 44.7674 0.00328232H19.2326C19.1861 -0.00109411 19.1394 -0.00109411 19.093 0.00328232ZM19.6744 1.49396H44.2791L47.6977 9.55295C47.7558 9.6838 47.8503 9.79513 47.9699 9.87361C48.0895 9.95209 48.2291 9.99441 48.3721 9.99549H60.2791C61.5287 9.99549 62.5116 10.9801 62.5116 12.2315V45.469C62.5116 46.7207 61.5287 47.705 60.2791 47.705H3.72093C2.47124 47.705 1.48837 46.7207 1.48837 45.469V12.2315C1.48837 10.9801 2.47127 9.99549 3.72093 9.99549H14.8837C15.0178 9.99436 15.1491 9.95698 15.2637 9.88728C15.3783 9.81758 15.472 9.71816 15.5349 9.59953L19.6744 1.49396ZM56.6977 14.1182C55.6593 14.1182 54.814 14.9415 54.814 15.9815C54.814 17.0215 55.6593 17.8681 56.6977 17.8681C57.7361 17.8681 58.5814 17.0215 58.5814 15.9815C58.5814 14.9415 57.7361 14.1182 56.6977 14.1182ZM32 16.2144C25.4328 16.2144 20.093 21.5624 20.093 28.1399C20.093 34.7173 25.4328 40.0653 32 40.0653C38.5672 40.0653 43.907 34.7173 43.907 28.1399C43.907 21.5624 38.5672 16.2144 32 16.2144ZM32 17.7051C37.7629 17.7051 42.4186 22.3681 42.4186 28.1399C42.4186 33.9116 37.7629 38.5746 32 38.5746C26.2371 38.5746 21.5814 33.9116 21.5814 28.1399C21.5814 22.3681 26.2371 17.7051 32 17.7051Z" fill="white"/>
</svg>
