<svg width="25" height="29" viewBox="0 0 25 29" fill="none" xmlns="http://www.w3.org/2000/svg">
<mask id="path-1-inside-1" fill="white">
<path d="M8.93511 0C7.78432 0 6.84364 0.879159 6.84364 1.95228V3.5734H2.09147C0.940677 3.5734 0 4.45255 0 5.52568V10.7206C0 11.7937 0.940677 12.6729 2.09147 12.6729H2.24004V13.472C2.24004 13.7346 2.33894 13.9971 2.59873 14.1229C2.85851 14.2597 3.15566 14.1801 3.37808 14.0314L5.53153 12.6957C5.54384 12.6957 5.54384 12.6843 5.55615 12.6729H11.9048C13.0684 12.6729 14.009 11.7937 14.009 10.7206V6.5649H15.2834C15.2957 6.57634 15.2957 6.57634 15.3084 6.58777L17.4614 7.92346C17.6966 8.07209 17.9937 8.14029 18.2535 8.01492C18.501 7.88956 18.6122 7.61516 18.6122 7.36444V6.5649H18.7485C19.9116 6.5649 20.8523 5.68575 20.8523 4.61262V1.95228C20.8523 0.879159 19.9116 0 18.7485 0H8.93511ZM8.93511 0.639462H18.7489C19.5283 0.639462 20.1476 1.22176 20.1476 1.95228V4.61262C20.1476 5.34315 19.5287 5.92544 18.7489 5.92544H18.254C18.0803 5.92544 17.9076 6.07367 17.9076 6.24517V7.36403C17.9076 7.39792 17.9076 7.40976 17.8953 7.4212C17.883 7.40976 17.883 7.40976 17.8579 7.3869L15.7049 6.05121C15.6926 6.03978 15.6557 6.02834 15.6306 6.00548C15.5686 5.94831 15.482 5.92585 15.3954 5.92585H14.0099V5.52608C14.0099 4.45296 13.0693 3.5738 11.9057 3.5738H7.53684V1.95269C7.53684 1.22176 8.16762 0.639462 8.93511 0.639462ZM2.09147 4.22429H11.9053C12.6851 4.22429 13.3035 4.79515 13.3035 5.52568V10.7206C13.3035 11.4515 12.6851 12.0334 11.9053 12.0334H5.44494C5.35834 12.0334 5.28405 12.0677 5.22251 12.1134C5.18559 12.1363 5.16054 12.1477 5.13592 12.1592L2.99478 13.5063C2.95786 13.5177 2.95786 13.5292 2.94511 13.5292C2.94511 13.5177 2.9328 13.5063 2.9328 13.472V12.3531C2.9328 12.182 2.77192 12.0334 2.58598 12.0334H2.09103C1.32354 12.0334 0.69276 11.4511 0.69276 10.7206V5.52568C0.6932 4.79515 1.32398 4.22429 2.09147 4.22429ZM6.99222 5.42318C6.97991 5.42318 6.95529 5.43462 6.93024 5.43462C6.76936 5.46892 6.64584 5.60571 6.64584 5.75435V9.16808C6.64584 9.32815 6.80672 9.48781 6.99266 9.48781C7.17859 9.48781 7.35134 9.32815 7.35134 9.16808V5.75435C7.3509 5.58325 7.17772 5.42318 6.99222 5.42318ZM17.9942 9.16808C16.3603 9.16808 15.0363 10.4013 15.0363 11.9081C15.0363 12.6614 15.3458 13.746 15.8407 14.6938C16.0882 15.1621 16.3854 15.5954 16.7317 15.9269C17.0781 16.2581 17.5111 16.5092 17.9942 16.5092C18.4891 16.5092 18.9098 16.2581 19.2685 15.9269C19.6149 15.5954 19.912 15.1621 20.1595 14.6938C20.6544 13.7464 20.9516 12.6614 20.9516 11.9081C20.9516 10.4009 19.6276 9.16808 17.9942 9.16808ZM17.9942 9.81898C19.2562 9.81898 20.2584 10.7549 20.2584 11.9085C20.2584 12.4908 19.974 13.5524 19.5283 14.4087C19.3054 14.8428 19.0333 15.2307 18.7612 15.4819C18.4891 15.7448 18.2289 15.8702 17.9942 15.8702C17.7713 15.8702 17.5111 15.7444 17.239 15.4819C16.9546 15.2307 16.6821 14.8428 16.4596 14.4087C16.0139 13.5524 15.7418 12.4908 15.7418 11.9085C15.7418 10.7549 16.744 9.81898 17.9942 9.81898ZM6.99222 10.1158C6.75705 10.1158 6.55924 10.2984 6.55924 10.5266C6.55924 10.7435 6.75705 10.9264 6.99222 10.9264C7.23969 10.9264 7.4375 10.7439 7.4375 10.5266C7.4375 10.2984 7.23969 10.1158 6.99222 10.1158ZM7.623 13.6321C6.00187 13.6321 4.66514 14.8653 4.66514 16.372C4.66514 17.1258 4.9746 18.2104 5.46955 19.1467C5.71703 19.6261 6.01418 20.0598 6.36056 20.3909C6.71925 20.7225 7.14035 20.9736 7.623 20.9736C8.11795 20.9736 8.53862 20.7225 8.89775 20.3909C9.24457 20.0598 9.54128 19.6261 9.78875 19.1467C10.2837 18.2104 10.5809 17.1258 10.5809 16.372C10.5809 14.8653 9.25687 13.6321 7.623 13.6321ZM7.623 14.283C8.88544 14.283 9.88765 15.2079 9.88765 16.372C9.88765 16.9547 9.60325 18.016 9.15753 18.8723C8.93467 19.2949 8.66258 19.6829 8.39005 19.9458C8.11795 20.2084 7.85817 20.3338 7.62256 20.3338C7.3997 20.3338 7.1276 20.208 6.85507 19.9458C6.58298 19.6829 6.31089 19.2949 6.08803 18.8723C5.6423 18.016 5.3579 16.9547 5.3579 16.372C5.35878 15.2074 6.3733 14.283 7.623 14.283ZM17.9942 17.2055C16.2737 17.2055 14.7515 17.9817 13.6381 18.9299C12.5365 19.8772 11.8187 20.9393 11.8187 21.7956C11.8187 22.2297 12.0411 22.6291 12.3756 22.9602C12.7097 23.2918 13.1677 23.5768 13.7242 23.8051C14.8508 24.2616 16.348 24.5356 17.9942 24.5356C19.6522 24.5356 21.1498 24.2616 22.2637 23.8051C22.8206 23.5764 23.2787 23.2914 23.6251 22.9602C23.9591 22.6291 24.182 22.2297 24.182 21.7956C24.182 20.9393 23.4519 19.8777 22.3503 18.9299C21.2487 17.9817 19.7265 17.2055 17.9942 17.2055ZM17.9942 17.8564C19.4913 17.8564 20.8777 18.5416 21.88 19.4093C22.8949 20.2656 23.4765 21.3273 23.4765 21.7956C23.4765 22.0353 23.3648 22.275 23.1178 22.5262C22.8703 22.7663 22.4743 23.017 21.967 23.2228C20.9767 23.6336 19.5661 23.8961 17.9946 23.8961C16.435 23.8961 15.0121 23.6332 14.0099 23.2228C13.5145 23.017 13.1312 22.7663 12.8833 22.5262C12.6235 22.275 12.5246 22.0353 12.5246 21.7956C12.5246 21.3277 13.1062 20.2656 14.1088 19.4093C15.1225 18.5411 16.5089 17.8564 17.9942 17.8564ZM7.623 21.6699C5.90297 21.6699 4.36843 22.4461 3.26687 23.3939C2.16532 24.3302 1.4475 25.4033 1.4475 26.26C1.4475 26.6937 1.65805 27.0935 1.99212 27.4246C2.3385 27.7558 2.80884 28.0294 3.36578 28.2695C4.47964 28.726 5.97681 29 7.623 29C9.28149 29 10.7664 28.726 11.8802 28.2695C12.4495 28.0294 12.9075 27.7554 13.2539 27.4246C13.5879 27.0935 13.8108 26.6937 13.8108 26.26C13.8108 25.4033 13.093 24.3302 11.9791 23.3939C10.878 22.4461 9.35578 21.6699 7.623 21.6699ZM7.623 22.3089C9.12061 22.3089 10.5066 23.0055 11.5088 23.8618C12.5237 24.7296 13.1053 25.7917 13.1053 26.2596C13.1053 26.4993 12.9941 26.739 12.7339 26.9901C12.4864 27.2298 12.1026 27.4695 11.6077 27.6753C10.6055 28.0976 9.19446 28.3605 7.623 28.3605C6.06385 28.3605 4.64053 28.0976 3.65062 27.6753C3.14335 27.4695 2.75961 27.2298 2.51213 26.9901C2.26466 26.739 2.15345 26.4993 2.15345 26.2596C2.15345 25.7917 2.735 24.7296 3.74996 23.8618C4.75218 23.0055 6.13813 22.3089 7.623 22.3089Z"/>
</mask>
<path d="M8.93511 0C7.78432 0 6.84364 0.879159 6.84364 1.95228V3.5734H2.09147C0.940677 3.5734 0 4.45255 0 5.52568V10.7206C0 11.7937 0.940677 12.6729 2.09147 12.6729H2.24004V13.472C2.24004 13.7346 2.33894 13.9971 2.59873 14.1229C2.85851 14.2597 3.15566 14.1801 3.37808 14.0314L5.53153 12.6957C5.54384 12.6957 5.54384 12.6843 5.55615 12.6729H11.9048C13.0684 12.6729 14.009 11.7937 14.009 10.7206V6.5649H15.2834C15.2957 6.57634 15.2957 6.57634 15.3084 6.58777L17.4614 7.92346C17.6966 8.07209 17.9937 8.14029 18.2535 8.01492C18.501 7.88956 18.6122 7.61516 18.6122 7.36444V6.5649H18.7485C19.9116 6.5649 20.8523 5.68575 20.8523 4.61262V1.95228C20.8523 0.879159 19.9116 0 18.7485 0H8.93511ZM8.93511 0.639462H18.7489C19.5283 0.639462 20.1476 1.22176 20.1476 1.95228V4.61262C20.1476 5.34315 19.5287 5.92544 18.7489 5.92544H18.254C18.0803 5.92544 17.9076 6.07367 17.9076 6.24517V7.36403C17.9076 7.39792 17.9076 7.40976 17.8953 7.4212C17.883 7.40976 17.883 7.40976 17.8579 7.3869L15.7049 6.05121C15.6926 6.03978 15.6557 6.02834 15.6306 6.00548C15.5686 5.94831 15.482 5.92585 15.3954 5.92585H14.0099V5.52608C14.0099 4.45296 13.0693 3.5738 11.9057 3.5738H7.53684V1.95269C7.53684 1.22176 8.16762 0.639462 8.93511 0.639462ZM2.09147 4.22429H11.9053C12.6851 4.22429 13.3035 4.79515 13.3035 5.52568V10.7206C13.3035 11.4515 12.6851 12.0334 11.9053 12.0334H5.44494C5.35834 12.0334 5.28405 12.0677 5.22251 12.1134C5.18559 12.1363 5.16054 12.1477 5.13592 12.1592L2.99478 13.5063C2.95786 13.5177 2.95786 13.5292 2.94511 13.5292C2.94511 13.5177 2.9328 13.5063 2.9328 13.472V12.3531C2.9328 12.182 2.77192 12.0334 2.58598 12.0334H2.09103C1.32354 12.0334 0.69276 11.4511 0.69276 10.7206V5.52568C0.6932 4.79515 1.32398 4.22429 2.09147 4.22429ZM6.99222 5.42318C6.97991 5.42318 6.95529 5.43462 6.93024 5.43462C6.76936 5.46892 6.64584 5.60571 6.64584 5.75435V9.16808C6.64584 9.32815 6.80672 9.48781 6.99266 9.48781C7.17859 9.48781 7.35134 9.32815 7.35134 9.16808V5.75435C7.3509 5.58325 7.17772 5.42318 6.99222 5.42318ZM17.9942 9.16808C16.3603 9.16808 15.0363 10.4013 15.0363 11.9081C15.0363 12.6614 15.3458 13.746 15.8407 14.6938C16.0882 15.1621 16.3854 15.5954 16.7317 15.9269C17.0781 16.2581 17.5111 16.5092 17.9942 16.5092C18.4891 16.5092 18.9098 16.2581 19.2685 15.9269C19.6149 15.5954 19.912 15.1621 20.1595 14.6938C20.6544 13.7464 20.9516 12.6614 20.9516 11.9081C20.9516 10.4009 19.6276 9.16808 17.9942 9.16808ZM17.9942 9.81898C19.2562 9.81898 20.2584 10.7549 20.2584 11.9085C20.2584 12.4908 19.974 13.5524 19.5283 14.4087C19.3054 14.8428 19.0333 15.2307 18.7612 15.4819C18.4891 15.7448 18.2289 15.8702 17.9942 15.8702C17.7713 15.8702 17.5111 15.7444 17.239 15.4819C16.9546 15.2307 16.6821 14.8428 16.4596 14.4087C16.0139 13.5524 15.7418 12.4908 15.7418 11.9085C15.7418 10.7549 16.744 9.81898 17.9942 9.81898ZM6.99222 10.1158C6.75705 10.1158 6.55924 10.2984 6.55924 10.5266C6.55924 10.7435 6.75705 10.9264 6.99222 10.9264C7.23969 10.9264 7.4375 10.7439 7.4375 10.5266C7.4375 10.2984 7.23969 10.1158 6.99222 10.1158ZM7.623 13.6321C6.00187 13.6321 4.66514 14.8653 4.66514 16.372C4.66514 17.1258 4.9746 18.2104 5.46955 19.1467C5.71703 19.6261 6.01418 20.0598 6.36056 20.3909C6.71925 20.7225 7.14035 20.9736 7.623 20.9736C8.11795 20.9736 8.53862 20.7225 8.89775 20.3909C9.24457 20.0598 9.54128 19.6261 9.78875 19.1467C10.2837 18.2104 10.5809 17.1258 10.5809 16.372C10.5809 14.8653 9.25687 13.6321 7.623 13.6321ZM7.623 14.283C8.88544 14.283 9.88765 15.2079 9.88765 16.372C9.88765 16.9547 9.60325 18.016 9.15753 18.8723C8.93467 19.2949 8.66258 19.6829 8.39005 19.9458C8.11795 20.2084 7.85817 20.3338 7.62256 20.3338C7.3997 20.3338 7.1276 20.208 6.85507 19.9458C6.58298 19.6829 6.31089 19.2949 6.08803 18.8723C5.6423 18.016 5.3579 16.9547 5.3579 16.372C5.35878 15.2074 6.3733 14.283 7.623 14.283ZM17.9942 17.2055C16.2737 17.2055 14.7515 17.9817 13.6381 18.9299C12.5365 19.8772 11.8187 20.9393 11.8187 21.7956C11.8187 22.2297 12.0411 22.6291 12.3756 22.9602C12.7097 23.2918 13.1677 23.5768 13.7242 23.8051C14.8508 24.2616 16.348 24.5356 17.9942 24.5356C19.6522 24.5356 21.1498 24.2616 22.2637 23.8051C22.8206 23.5764 23.2787 23.2914 23.6251 22.9602C23.9591 22.6291 24.182 22.2297 24.182 21.7956C24.182 20.9393 23.4519 19.8777 22.3503 18.9299C21.2487 17.9817 19.7265 17.2055 17.9942 17.2055ZM17.9942 17.8564C19.4913 17.8564 20.8777 18.5416 21.88 19.4093C22.8949 20.2656 23.4765 21.3273 23.4765 21.7956C23.4765 22.0353 23.3648 22.275 23.1178 22.5262C22.8703 22.7663 22.4743 23.017 21.967 23.2228C20.9767 23.6336 19.5661 23.8961 17.9946 23.8961C16.435 23.8961 15.0121 23.6332 14.0099 23.2228C13.5145 23.017 13.1312 22.7663 12.8833 22.5262C12.6235 22.275 12.5246 22.0353 12.5246 21.7956C12.5246 21.3277 13.1062 20.2656 14.1088 19.4093C15.1225 18.5411 16.5089 17.8564 17.9942 17.8564ZM7.623 21.6699C5.90297 21.6699 4.36843 22.4461 3.26687 23.3939C2.16532 24.3302 1.4475 25.4033 1.4475 26.26C1.4475 26.6937 1.65805 27.0935 1.99212 27.4246C2.3385 27.7558 2.80884 28.0294 3.36578 28.2695C4.47964 28.726 5.97681 29 7.623 29C9.28149 29 10.7664 28.726 11.8802 28.2695C12.4495 28.0294 12.9075 27.7554 13.2539 27.4246C13.5879 27.0935 13.8108 26.6937 13.8108 26.26C13.8108 25.4033 13.093 24.3302 11.9791 23.3939C10.878 22.4461 9.35578 21.6699 7.623 21.6699ZM7.623 22.3089C9.12061 22.3089 10.5066 23.0055 11.5088 23.8618C12.5237 24.7296 13.1053 25.7917 13.1053 26.2596C13.1053 26.4993 12.9941 26.739 12.7339 26.9901C12.4864 27.2298 12.1026 27.4695 11.6077 27.6753C10.6055 28.0976 9.19446 28.3605 7.623 28.3605C6.06385 28.3605 4.64053 28.0976 3.65062 27.6753C3.14335 27.4695 2.75961 27.2298 2.51213 26.9901C2.26466 26.739 2.15345 26.4993 2.15345 26.2596C2.15345 25.7917 2.735 24.7296 3.74996 23.8618C4.75218 23.0055 6.13813 22.3089 7.623 22.3089Z" fill="#404040" stroke="#404040" mask="url(#path-1-inside-1)"/>
</svg>
